<?xml version="1.0" encoding="utf-8"?>
<!-- Generator: Adobe Illustrator 24.0.0, SVG Export Plug-In . SVG Version: 6.00 Build 0)  -->
<svg version="1.1" id="Layer_1" xmlns="http://www.w3.org/2000/svg" xmlns:xlink="http://www.w3.org/1999/xlink" x="0px" y="0px"
	 viewBox="0 0 1110.1 1000" style="enable-background:new 0 0 1110.1 1000;" xml:space="preserve">
<style type="text/css">
	.st0{fill:#73CBEA;}
	.st1{fill:#FFFFFF;}
</style>
<path class="st0" d="M776.5,457.5c-3.8-30.9-13.9-59.8-28.9-85.5L555,0L362.5,372h0c-15.1,25.7-25.1,54.6-28.9,85.5v0
	c-0.5,4.2-0.9,8.5-1.2,12.8c0,0.3,0,0.7-0.1,1c-0.3,4.5-0.4,8.9-0.4,13.5C331.9,608.1,431.8,708,555,708
	c123.3,0,223.2-99.9,223.2-223.2c0-4.5-0.2-9-0.5-13.5c0-0.3-0.1-0.7-0.1-1C777.4,466,777,461.7,776.5,457.5L776.5,457.5
	L776.5,457.5L776.5,457.5z"/>
<path class="st0" d="M281.2,740.5c6.1-4.1,7.7-12.4,3.6-18.5c-4.1-6.1-12.4-7.7-18.5-3.6c-26.7,18-40.2,38.2-40.2,60
	c0,78.9,169.5,121.5,329,121.5c159.5,0,329-42.6,329-121.5c0-20.1-11.7-39-34.6-56c-5.9-4.4-14.3-3.1-18.7,2.8
	c-4.4,5.9-3.2,14.3,2.8,18.7c10.9,8.1,23.9,20.6,23.9,34.6c0,44.9-124.2,94.8-302.3,94.8c-178.2,0-302.3-50-302.3-94.8
	C252.7,762.9,268.2,749.2,281.2,740.5"/>
<path class="st0" d="M974.9,669.4c-6.8-2.8-14.6,0.5-17.4,7.3c-2.8,6.8,0.5,14.6,7.3,17.4c76.4,31.2,118.5,69.2,118.5,106.9
	c0,83.2-212.3,172.3-528.3,172.3c-316,0-528.3-89.1-528.3-172.3c0-38.9,44.7-77.9,125.8-109.6c6.9-2.7,10.3-10.4,7.6-17.3
	c-2.7-6.9-10.5-10.2-17.3-7.5C49.4,703.1,0,749.6,0,801c0,111.6,243.8,199,555,199c311.3,0,555-87.4,555-199
	C1110.1,751,1063.4,705.4,974.9,669.4"/>
<path class="st1" d="M555.8,296.7c-0.3,0-0.5,0-0.8,0c-101.8,0-184.4,82.6-184.4,184.4c0,10.2,0.8,20.2,2.4,29.9
	C387,409.2,459.6,326,555.8,296.7z"/>
<path class="st1" d="M693.9,359.8c1.6,11,2.5,22.2,2.5,33.7c0,125.5-101.7,227.2-227.2,227.2c-13.1,0-25.9-1.1-38.4-3.3
	c32.8,29.9,76.4,48.2,124.3,48.2c101.8,0,184.4-82.6,184.4-184.4C739.5,434.7,722.2,392.2,693.9,359.8z"/>
</svg>
